<mxfile host="Electron" agent="Mozilla/5.0 (Windows NT 10.0; Win64; x64) AppleWebKit/537.36 (KHTML, like Gecko) draw.io/28.1.2 Chrome/138.0.7204.243 Electron/37.4.0 Safari/537.36" version="28.1.2">
  <diagram name="Page-1" id="8ay2w1NLQrHnAYnHizhS">
    <mxGraphModel dx="3281" dy="2513" grid="1" gridSize="10" guides="1" tooltips="1" connect="1" arrows="1" fold="1" page="1" pageScale="1" pageWidth="850" pageHeight="1100" math="0" shadow="0">
      <root>
        <mxCell id="0" />
        <mxCell id="1" parent="0" />
        <mxCell id="XDTGOXCAwWw70PU2F9be-3" value="Workforce Hub" style="swimlane;startSize=20;rounded=0;swimlaneFillColor=#7EA6E0;" parent="1" vertex="1">
          <mxGeometry x="90" y="-170" width="820" height="1650" as="geometry" />
        </mxCell>
        <mxCell id="XDTGOXCAwWw70PU2F9be-1" value="Manager" style="shape=umlActor;verticalLabelPosition=bottom;verticalAlign=top;html=1;outlineConnect=0;" parent="XDTGOXCAwWw70PU2F9be-3" vertex="1">
          <mxGeometry x="-230" y="580" width="30" height="60" as="geometry" />
        </mxCell>
        <mxCell id="XDTGOXCAwWw70PU2F9be-2" value="payroll calculation" style="ellipse;whiteSpace=wrap;html=1;" parent="XDTGOXCAwWw70PU2F9be-3" vertex="1">
          <mxGeometry x="80" y="1210" width="180" height="80" as="geometry" />
        </mxCell>
        <mxCell id="XDTGOXCAwWw70PU2F9be-7" value="time attendance" style="ellipse;whiteSpace=wrap;html=1;" parent="XDTGOXCAwWw70PU2F9be-3" vertex="1">
          <mxGeometry x="85" y="1360" width="180" height="80" as="geometry" />
        </mxCell>
        <mxCell id="XDTGOXCAwWw70PU2F9be-14" value="delete employee" style="ellipse;whiteSpace=wrap;html=1;" parent="XDTGOXCAwWw70PU2F9be-3" vertex="1">
          <mxGeometry x="85" y="840" width="180" height="80" as="geometry" />
        </mxCell>
        <mxCell id="XDTGOXCAwWw70PU2F9be-15" value="update employee" style="ellipse;whiteSpace=wrap;html=1;" parent="XDTGOXCAwWw70PU2F9be-3" vertex="1">
          <mxGeometry x="85" y="960" width="180" height="80" as="geometry" />
        </mxCell>
        <mxCell id="XDTGOXCAwWw70PU2F9be-16" value="load employee" style="ellipse;whiteSpace=wrap;html=1;" parent="XDTGOXCAwWw70PU2F9be-3" vertex="1">
          <mxGeometry x="85" y="1080" width="180" height="80" as="geometry" />
        </mxCell>
        <mxCell id="XDTGOXCAwWw70PU2F9be-13" value="create employee" style="ellipse;whiteSpace=wrap;html=1;" parent="XDTGOXCAwWw70PU2F9be-3" vertex="1">
          <mxGeometry x="85" y="730" width="180" height="80" as="geometry" />
        </mxCell>
        <mxCell id="XDTGOXCAwWw70PU2F9be-21" value="login" style="ellipse;whiteSpace=wrap;html=1;" parent="XDTGOXCAwWw70PU2F9be-3" vertex="1">
          <mxGeometry x="390" y="860" width="180" height="80" as="geometry" />
        </mxCell>
        <mxCell id="XDTGOXCAwWw70PU2F9be-22" value="logout" style="ellipse;whiteSpace=wrap;html=1;" parent="XDTGOXCAwWw70PU2F9be-3" vertex="1">
          <mxGeometry x="260" y="390" width="180" height="80" as="geometry" />
        </mxCell>
        <mxCell id="XDTGOXCAwWw70PU2F9be-34" value="change password" style="ellipse;whiteSpace=wrap;html=1;" parent="XDTGOXCAwWw70PU2F9be-3" vertex="1">
          <mxGeometry x="450" y="500" width="180" height="80" as="geometry" />
        </mxCell>
        <mxCell id="XDTGOXCAwWw70PU2F9be-36" value="forgot password" style="ellipse;whiteSpace=wrap;html=1;" parent="XDTGOXCAwWw70PU2F9be-3" vertex="1">
          <mxGeometry x="50" y="260" width="180" height="80" as="geometry" />
        </mxCell>
        <mxCell id="XDTGOXCAwWw70PU2F9be-38" value="send notification" style="ellipse;whiteSpace=wrap;html=1;" parent="XDTGOXCAwWw70PU2F9be-3" vertex="1">
          <mxGeometry x="360" y="110" width="180" height="80" as="geometry" />
        </mxCell>
        <mxCell id="XDTGOXCAwWw70PU2F9be-40" value="update password" style="ellipse;whiteSpace=wrap;html=1;" parent="XDTGOXCAwWw70PU2F9be-3" vertex="1">
          <mxGeometry x="359.99999999999994" y="250" width="180" height="80" as="geometry" />
        </mxCell>
        <mxCell id="XDTGOXCAwWw70PU2F9be-4" value="Employee" style="shape=umlActor;verticalLabelPosition=bottom;verticalAlign=top;html=1;outlineConnect=0;" parent="XDTGOXCAwWw70PU2F9be-3" vertex="1">
          <mxGeometry x="-230" y="1260" width="30" height="60" as="geometry" />
        </mxCell>
        <mxCell id="XDTGOXCAwWw70PU2F9be-31" value="Actor" style="shape=umlActor;verticalLabelPosition=bottom;verticalAlign=top;html=1;outlineConnect=0;" parent="XDTGOXCAwWw70PU2F9be-3" vertex="1">
          <mxGeometry x="-230" y="940" width="30" height="60" as="geometry" />
        </mxCell>
        <mxCell id="XDTGOXCAwWw70PU2F9be-32" value="" style="edgeStyle=none;html=1;endSize=12;endArrow=block;endFill=0;rounded=0;" parent="XDTGOXCAwWw70PU2F9be-3" edge="1">
          <mxGeometry width="160" relative="1" as="geometry">
            <mxPoint x="-215" y="920" as="sourcePoint" />
            <mxPoint x="-215" y="690" as="targetPoint" />
          </mxGeometry>
        </mxCell>
        <mxCell id="XDTGOXCAwWw70PU2F9be-33" value="" style="edgeStyle=none;html=1;endSize=12;endArrow=block;endFill=0;rounded=0;entryX=0.5;entryY=0;entryDx=0;entryDy=0;entryPerimeter=0;" parent="XDTGOXCAwWw70PU2F9be-3" target="XDTGOXCAwWw70PU2F9be-4" edge="1">
          <mxGeometry width="160" relative="1" as="geometry">
            <mxPoint x="-215" y="1030" as="sourcePoint" />
            <mxPoint x="-220" y="840" as="targetPoint" />
          </mxGeometry>
        </mxCell>
        <mxCell id="XDTGOXCAwWw70PU2F9be-43" value="view payslip" style="ellipse;whiteSpace=wrap;html=1;" parent="XDTGOXCAwWw70PU2F9be-3" vertex="1">
          <mxGeometry x="92.99999999999997" y="1490" width="175" height="80" as="geometry" />
        </mxCell>
        <mxCell id="XDTGOXCAwWw70PU2F9be-47" value="for month" style="ellipse;whiteSpace=wrap;html=1;" parent="XDTGOXCAwWw70PU2F9be-3" vertex="1">
          <mxGeometry x="320" y="630" width="180" height="80" as="geometry" />
        </mxCell>
        <mxCell id="XDTGOXCAwWw70PU2F9be-51" value="" style="shape=ellipse;container=1;horizontal=1;horizontalStack=0;resizeParent=1;resizeParentMax=0;resizeLast=0;html=1;dashed=0;collapsible=0;" parent="XDTGOXCAwWw70PU2F9be-3" vertex="1">
          <mxGeometry x="60" y="570" width="180" height="120" as="geometry" />
        </mxCell>
        <mxCell id="XDTGOXCAwWw70PU2F9be-52" value="generate report" style="html=1;strokeColor=none;fillColor=none;align=center;verticalAlign=middle;rotatable=0;whiteSpace=wrap;" parent="XDTGOXCAwWw70PU2F9be-51" vertex="1">
          <mxGeometry width="180" height="30" as="geometry" />
        </mxCell>
        <mxCell id="XDTGOXCAwWw70PU2F9be-53" value="" style="line;strokeWidth=1;fillColor=none;rotatable=0;labelPosition=right;points=[];portConstraint=eastwest;dashed=0;resizeWidth=1;" parent="XDTGOXCAwWw70PU2F9be-51" vertex="1">
          <mxGeometry x="9" y="30" width="162" height="10" as="geometry" />
        </mxCell>
        <mxCell id="XDTGOXCAwWw70PU2F9be-54" value="extension points" style="text;html=1;align=center;verticalAlign=middle;rotatable=0;fillColor=none;strokeColor=none;whiteSpace=wrap;" parent="XDTGOXCAwWw70PU2F9be-51" vertex="1">
          <mxGeometry y="40" width="180" height="30" as="geometry" />
        </mxCell>
        <mxCell id="XDTGOXCAwWw70PU2F9be-55" value="for month" style="text;html=1;align=left;verticalAlign=middle;rotatable=0;spacingLeft=25;fillColor=none;strokeColor=none;whiteSpace=wrap;" parent="XDTGOXCAwWw70PU2F9be-51" vertex="1">
          <mxGeometry y="70" width="180" height="30" as="geometry" />
        </mxCell>
        <mxCell id="XDTGOXCAwWw70PU2F9be-65" value="&amp;lt;&amp;lt;include&amp;gt;&amp;gt;" style="html=1;verticalAlign=bottom;labelBackgroundColor=none;endArrow=open;endFill=0;dashed=1;rounded=0;fontStyle=0;entryX=0.01;entryY=0.572;entryDx=0;entryDy=0;entryPerimeter=0;" parent="XDTGOXCAwWw70PU2F9be-3" source="XDTGOXCAwWw70PU2F9be-36" target="XDTGOXCAwWw70PU2F9be-38" edge="1">
          <mxGeometry width="160" relative="1" as="geometry">
            <mxPoint x="-20" y="645" as="sourcePoint" />
            <mxPoint x="275" y="560" as="targetPoint" />
            <mxPoint as="offset" />
          </mxGeometry>
        </mxCell>
        <mxCell id="XDTGOXCAwWw70PU2F9be-66" value="&amp;lt;&amp;lt;include&amp;gt;&amp;gt;" style="html=1;verticalAlign=bottom;labelBackgroundColor=none;endArrow=open;endFill=0;dashed=1;rounded=0;fontStyle=0;exitX=0.975;exitY=0.616;exitDx=0;exitDy=0;exitPerimeter=0;" parent="XDTGOXCAwWw70PU2F9be-3" source="XDTGOXCAwWw70PU2F9be-36" target="XDTGOXCAwWw70PU2F9be-40" edge="1">
          <mxGeometry x="0.0058" width="160" relative="1" as="geometry">
            <mxPoint x="300" y="227" as="sourcePoint" />
            <mxPoint x="366" y="200" as="targetPoint" />
            <mxPoint as="offset" />
          </mxGeometry>
        </mxCell>
        <mxCell id="XDTGOXCAwWw70PU2F9be-72" value="&amp;lt;&amp;lt;include&amp;gt;&amp;gt;" style="html=1;verticalAlign=bottom;labelBackgroundColor=none;endArrow=open;endFill=0;dashed=1;rounded=0;fontStyle=0;" parent="XDTGOXCAwWw70PU2F9be-3" source="XDTGOXCAwWw70PU2F9be-38" target="XDTGOXCAwWw70PU2F9be-73" edge="1">
          <mxGeometry x="0.0058" width="160" relative="1" as="geometry">
            <mxPoint x="796.561183109683" y="161.02736719209588" as="sourcePoint" />
            <mxPoint x="796" y="335" as="targetPoint" />
            <mxPoint as="offset" />
          </mxGeometry>
        </mxCell>
        <mxCell id="XDTGOXCAwWw70PU2F9be-73" value="generate form" style="ellipse;whiteSpace=wrap;html=1;" parent="XDTGOXCAwWw70PU2F9be-3" vertex="1">
          <mxGeometry x="600" y="330" width="180" height="80" as="geometry" />
        </mxCell>
        <mxCell id="3WY_Cd7fbl2x3Lbu7-pm-1" value="&amp;lt;&amp;lt;include&amp;gt;&amp;gt;" style="html=1;verticalAlign=bottom;labelBackgroundColor=none;endArrow=open;endFill=0;dashed=1;rounded=0;exitX=1;exitY=0.5;exitDx=0;exitDy=0;" edge="1" parent="XDTGOXCAwWw70PU2F9be-3" source="XDTGOXCAwWw70PU2F9be-13" target="XDTGOXCAwWw70PU2F9be-21">
          <mxGeometry width="160" relative="1" as="geometry">
            <mxPoint x="40" y="1279" as="sourcePoint" />
            <mxPoint x="322" y="1250" as="targetPoint" />
          </mxGeometry>
        </mxCell>
        <mxCell id="3WY_Cd7fbl2x3Lbu7-pm-2" value="&amp;lt;&amp;lt;include&amp;gt;&amp;gt;" style="html=1;verticalAlign=bottom;labelBackgroundColor=none;endArrow=open;endFill=0;dashed=1;rounded=0;exitX=1;exitY=0.5;exitDx=0;exitDy=0;entryX=0;entryY=0.5;entryDx=0;entryDy=0;" edge="1" parent="XDTGOXCAwWw70PU2F9be-3" source="XDTGOXCAwWw70PU2F9be-14" target="XDTGOXCAwWw70PU2F9be-21">
          <mxGeometry width="160" relative="1" as="geometry">
            <mxPoint x="390" y="810" as="sourcePoint" />
            <mxPoint x="552" y="908" as="targetPoint" />
          </mxGeometry>
        </mxCell>
        <mxCell id="3WY_Cd7fbl2x3Lbu7-pm-3" value="&amp;lt;&amp;lt;include&amp;gt;&amp;gt;" style="html=1;verticalAlign=bottom;labelBackgroundColor=none;endArrow=open;endFill=0;dashed=1;rounded=0;" edge="1" parent="XDTGOXCAwWw70PU2F9be-3" source="XDTGOXCAwWw70PU2F9be-15" target="XDTGOXCAwWw70PU2F9be-21">
          <mxGeometry width="160" relative="1" as="geometry">
            <mxPoint x="390" y="810" as="sourcePoint" />
            <mxPoint x="552" y="908" as="targetPoint" />
          </mxGeometry>
        </mxCell>
        <mxCell id="3WY_Cd7fbl2x3Lbu7-pm-4" value="&amp;lt;&amp;lt;include&amp;gt;&amp;gt;" style="html=1;verticalAlign=bottom;labelBackgroundColor=none;endArrow=open;endFill=0;dashed=1;rounded=0;" edge="1" parent="XDTGOXCAwWw70PU2F9be-3" source="XDTGOXCAwWw70PU2F9be-16" target="XDTGOXCAwWw70PU2F9be-21">
          <mxGeometry width="160" relative="1" as="geometry">
            <mxPoint x="390" y="810" as="sourcePoint" />
            <mxPoint x="552" y="908" as="targetPoint" />
          </mxGeometry>
        </mxCell>
        <mxCell id="3WY_Cd7fbl2x3Lbu7-pm-5" value="&amp;lt;&amp;lt;include&amp;gt;&amp;gt;" style="html=1;verticalAlign=bottom;labelBackgroundColor=none;endArrow=open;endFill=0;dashed=1;rounded=0;" edge="1" parent="XDTGOXCAwWw70PU2F9be-3" source="XDTGOXCAwWw70PU2F9be-2" target="XDTGOXCAwWw70PU2F9be-21">
          <mxGeometry width="160" relative="1" as="geometry">
            <mxPoint x="390" y="810" as="sourcePoint" />
            <mxPoint x="552" y="908" as="targetPoint" />
          </mxGeometry>
        </mxCell>
        <mxCell id="3WY_Cd7fbl2x3Lbu7-pm-6" value="&amp;lt;&amp;lt;include&amp;gt;&amp;gt;" style="html=1;verticalAlign=bottom;labelBackgroundColor=none;endArrow=open;endFill=0;dashed=1;rounded=0;" edge="1" parent="XDTGOXCAwWw70PU2F9be-3" source="XDTGOXCAwWw70PU2F9be-7" target="XDTGOXCAwWw70PU2F9be-21">
          <mxGeometry width="160" relative="1" as="geometry">
            <mxPoint x="390" y="810" as="sourcePoint" />
            <mxPoint x="552" y="908" as="targetPoint" />
          </mxGeometry>
        </mxCell>
        <mxCell id="3WY_Cd7fbl2x3Lbu7-pm-7" value="&amp;lt;&amp;lt;include&amp;gt;&amp;gt;" style="html=1;verticalAlign=bottom;labelBackgroundColor=none;endArrow=open;endFill=0;dashed=1;rounded=0;" edge="1" parent="XDTGOXCAwWw70PU2F9be-3" source="XDTGOXCAwWw70PU2F9be-43" target="XDTGOXCAwWw70PU2F9be-21">
          <mxGeometry width="160" relative="1" as="geometry">
            <mxPoint x="390" y="810" as="sourcePoint" />
            <mxPoint x="552" y="908" as="targetPoint" />
            <Array as="points">
              <mxPoint x="300" y="1450" />
            </Array>
          </mxGeometry>
        </mxCell>
        <mxCell id="3WY_Cd7fbl2x3Lbu7-pm-8" value="" style="html=1;verticalAlign=bottom;labelBackgroundColor=none;endArrow=none;endFill=0;rounded=0;entryX=1;entryY=0.3333333333333333;entryDx=0;entryDy=0;entryPerimeter=0;" edge="1" parent="XDTGOXCAwWw70PU2F9be-3" source="XDTGOXCAwWw70PU2F9be-13" target="XDTGOXCAwWw70PU2F9be-1">
          <mxGeometry width="160" relative="1" as="geometry">
            <mxPoint x="500" y="930" as="sourcePoint" />
            <mxPoint x="530" y="820" as="targetPoint" />
          </mxGeometry>
        </mxCell>
        <mxCell id="3WY_Cd7fbl2x3Lbu7-pm-9" value="" style="html=1;verticalAlign=bottom;labelBackgroundColor=none;endArrow=none;endFill=0;rounded=0;" edge="1" parent="XDTGOXCAwWw70PU2F9be-3" source="XDTGOXCAwWw70PU2F9be-14" target="XDTGOXCAwWw70PU2F9be-1">
          <mxGeometry width="160" relative="1" as="geometry">
            <mxPoint x="500" y="930" as="sourcePoint" />
            <mxPoint x="530" y="820" as="targetPoint" />
          </mxGeometry>
        </mxCell>
        <mxCell id="3WY_Cd7fbl2x3Lbu7-pm-10" value="" style="html=1;verticalAlign=bottom;labelBackgroundColor=none;endArrow=none;endFill=0;rounded=0;exitX=0;exitY=0;exitDx=0;exitDy=0;" edge="1" parent="XDTGOXCAwWw70PU2F9be-3" source="XDTGOXCAwWw70PU2F9be-15" target="XDTGOXCAwWw70PU2F9be-1">
          <mxGeometry width="160" relative="1" as="geometry">
            <mxPoint x="500" y="930" as="sourcePoint" />
            <mxPoint x="530" y="820" as="targetPoint" />
          </mxGeometry>
        </mxCell>
        <mxCell id="3WY_Cd7fbl2x3Lbu7-pm-11" value="" style="html=1;verticalAlign=bottom;labelBackgroundColor=none;endArrow=none;endFill=0;rounded=0;exitX=0;exitY=0;exitDx=0;exitDy=0;" edge="1" parent="XDTGOXCAwWw70PU2F9be-3" source="XDTGOXCAwWw70PU2F9be-16" target="XDTGOXCAwWw70PU2F9be-1">
          <mxGeometry width="160" relative="1" as="geometry">
            <mxPoint x="500" y="930" as="sourcePoint" />
            <mxPoint x="530" y="820" as="targetPoint" />
          </mxGeometry>
        </mxCell>
        <mxCell id="3WY_Cd7fbl2x3Lbu7-pm-13" value="" style="html=1;verticalAlign=bottom;labelBackgroundColor=none;endArrow=none;endFill=0;rounded=0;" edge="1" parent="XDTGOXCAwWw70PU2F9be-3" source="XDTGOXCAwWw70PU2F9be-2" target="XDTGOXCAwWw70PU2F9be-1">
          <mxGeometry width="160" relative="1" as="geometry">
            <mxPoint x="80" y="1180" as="sourcePoint" />
            <mxPoint x="10" y="740" as="targetPoint" />
            <Array as="points">
              <mxPoint x="50" y="1150" />
            </Array>
          </mxGeometry>
        </mxCell>
        <mxCell id="3WY_Cd7fbl2x3Lbu7-pm-14" value="&amp;lt;&amp;lt;include&amp;gt;&amp;gt;" style="html=1;verticalAlign=bottom;labelBackgroundColor=none;endArrow=open;endFill=0;dashed=1;rounded=0;exitX=0.389;exitY=1;exitDx=0;exitDy=0;exitPerimeter=0;" edge="1" parent="XDTGOXCAwWw70PU2F9be-3" source="XDTGOXCAwWw70PU2F9be-47" target="XDTGOXCAwWw70PU2F9be-21">
          <mxGeometry width="160" relative="1" as="geometry">
            <mxPoint x="40" y="1279" as="sourcePoint" />
            <mxPoint x="322" y="1250" as="targetPoint" />
          </mxGeometry>
        </mxCell>
        <mxCell id="3WY_Cd7fbl2x3Lbu7-pm-15" value="" style="html=1;verticalAlign=bottom;labelBackgroundColor=none;endArrow=none;endFill=0;rounded=0;exitX=0;exitY=0.75;exitDx=0;exitDy=0;" edge="1" parent="XDTGOXCAwWw70PU2F9be-3" source="XDTGOXCAwWw70PU2F9be-54">
          <mxGeometry width="160" relative="1" as="geometry">
            <mxPoint x="700" y="1000" as="sourcePoint" />
            <mxPoint x="-200" y="600" as="targetPoint" />
          </mxGeometry>
        </mxCell>
        <mxCell id="3WY_Cd7fbl2x3Lbu7-pm-16" value="" style="html=1;verticalAlign=bottom;labelBackgroundColor=none;endArrow=none;endFill=0;rounded=0;" edge="1" parent="XDTGOXCAwWw70PU2F9be-3" source="XDTGOXCAwWw70PU2F9be-36">
          <mxGeometry width="160" relative="1" as="geometry">
            <mxPoint x="700" y="1000" as="sourcePoint" />
            <mxPoint x="-200" y="600" as="targetPoint" />
          </mxGeometry>
        </mxCell>
        <mxCell id="3WY_Cd7fbl2x3Lbu7-pm-17" value="" style="html=1;verticalAlign=bottom;labelBackgroundColor=none;endArrow=none;endFill=0;rounded=0;" edge="1" parent="XDTGOXCAwWw70PU2F9be-3" source="XDTGOXCAwWw70PU2F9be-2" target="XDTGOXCAwWw70PU2F9be-4">
          <mxGeometry width="160" relative="1" as="geometry">
            <mxPoint x="80" y="1180" as="sourcePoint" />
            <mxPoint x="10" y="740" as="targetPoint" />
          </mxGeometry>
        </mxCell>
        <mxCell id="3WY_Cd7fbl2x3Lbu7-pm-19" value="" style="html=1;verticalAlign=bottom;labelBackgroundColor=none;endArrow=none;endFill=0;rounded=0;exitX=0.023;exitY=0.374;exitDx=0;exitDy=0;exitPerimeter=0;" edge="1" parent="XDTGOXCAwWw70PU2F9be-3" source="XDTGOXCAwWw70PU2F9be-7" target="XDTGOXCAwWw70PU2F9be-4">
          <mxGeometry width="160" relative="1" as="geometry">
            <mxPoint x="80" y="1180" as="sourcePoint" />
            <mxPoint x="10" y="740" as="targetPoint" />
          </mxGeometry>
        </mxCell>
        <mxCell id="3WY_Cd7fbl2x3Lbu7-pm-20" value="" style="html=1;verticalAlign=bottom;labelBackgroundColor=none;endArrow=none;endFill=0;rounded=0;exitX=0.047;exitY=0.336;exitDx=0;exitDy=0;exitPerimeter=0;" edge="1" parent="XDTGOXCAwWw70PU2F9be-3" source="XDTGOXCAwWw70PU2F9be-43" target="XDTGOXCAwWw70PU2F9be-4">
          <mxGeometry width="160" relative="1" as="geometry">
            <mxPoint x="80" y="1180" as="sourcePoint" />
            <mxPoint x="10" y="740" as="targetPoint" />
          </mxGeometry>
        </mxCell>
        <mxCell id="3WY_Cd7fbl2x3Lbu7-pm-22" value="&amp;lt;&amp;lt;include&amp;gt;&amp;gt;" style="html=1;verticalAlign=bottom;labelBackgroundColor=none;endArrow=open;endFill=0;dashed=1;rounded=0;" edge="1" parent="XDTGOXCAwWw70PU2F9be-3" source="XDTGOXCAwWw70PU2F9be-34" target="XDTGOXCAwWw70PU2F9be-21">
          <mxGeometry width="160" relative="1" as="geometry">
            <mxPoint x="40" y="1279" as="sourcePoint" />
            <mxPoint x="322" y="1250" as="targetPoint" />
          </mxGeometry>
        </mxCell>
        <mxCell id="3WY_Cd7fbl2x3Lbu7-pm-24" value="" style="html=1;verticalAlign=bottom;labelBackgroundColor=none;endArrow=none;endFill=0;rounded=0;exitX=0.034;exitY=0.601;exitDx=0;exitDy=0;exitPerimeter=0;" edge="1" parent="XDTGOXCAwWw70PU2F9be-3" source="XDTGOXCAwWw70PU2F9be-22">
          <mxGeometry width="160" relative="1" as="geometry">
            <mxPoint x="700" y="1000" as="sourcePoint" />
            <mxPoint x="-200" y="600" as="targetPoint" />
          </mxGeometry>
        </mxCell>
        <mxCell id="3WY_Cd7fbl2x3Lbu7-pm-25" value="" style="html=1;verticalAlign=bottom;labelBackgroundColor=none;endArrow=none;endFill=0;rounded=0;exitX=0;exitY=0.5;exitDx=0;exitDy=0;" edge="1" parent="XDTGOXCAwWw70PU2F9be-3" source="XDTGOXCAwWw70PU2F9be-34">
          <mxGeometry width="160" relative="1" as="geometry">
            <mxPoint x="700" y="1000" as="sourcePoint" />
            <mxPoint x="-200" y="600" as="targetPoint" />
          </mxGeometry>
        </mxCell>
        <mxCell id="3WY_Cd7fbl2x3Lbu7-pm-26" value="&amp;lt;&amp;lt;extend&amp;gt;&amp;gt;" style="html=1;verticalAlign=bottom;labelBackgroundColor=none;endArrow=open;endFill=0;dashed=1;rounded=0;entryX=1;entryY=0.75;entryDx=0;entryDy=0;" edge="1" parent="XDTGOXCAwWw70PU2F9be-3" source="XDTGOXCAwWw70PU2F9be-47" target="XDTGOXCAwWw70PU2F9be-54">
          <mxGeometry width="160" relative="1" as="geometry">
            <mxPoint x="910" y="-130" as="sourcePoint" />
            <mxPoint x="500" y="420" as="targetPoint" />
          </mxGeometry>
        </mxCell>
        <mxCell id="XDTGOXCAwWw70PU2F9be-9" value="&amp;lt;&amp;lt;extend&amp;gt;&amp;gt;" style="html=1;verticalAlign=bottom;labelBackgroundColor=none;endArrow=open;endFill=0;dashed=1;rounded=0;" parent="1" edge="1">
          <mxGeometry width="160" relative="1" as="geometry">
            <mxPoint x="1130" y="-60" as="sourcePoint" />
            <mxPoint x="1130" y="-160" as="targetPoint" />
          </mxGeometry>
        </mxCell>
        <mxCell id="XDTGOXCAwWw70PU2F9be-10" value="&amp;lt;&amp;lt;include&amp;gt;&amp;gt;" style="html=1;verticalAlign=bottom;labelBackgroundColor=none;endArrow=open;endFill=0;dashed=1;rounded=0;" parent="1" edge="1">
          <mxGeometry width="160" relative="1" as="geometry">
            <mxPoint x="1070" y="-60" as="sourcePoint" />
            <mxPoint x="1070" y="-160" as="targetPoint" />
            <mxPoint as="offset" />
          </mxGeometry>
        </mxCell>
        <mxCell id="XDTGOXCAwWw70PU2F9be-12" value="" style="edgeStyle=none;html=1;endSize=12;endArrow=block;endFill=0;rounded=0;" parent="1" edge="1">
          <mxGeometry width="160" relative="1" as="geometry">
            <mxPoint x="1180" y="-60" as="sourcePoint" />
            <mxPoint x="1180" y="-160" as="targetPoint" />
          </mxGeometry>
        </mxCell>
      </root>
    </mxGraphModel>
  </diagram>
</mxfile>
